# xmcd
#
# Track frame offsets:
#	150
#	15039
#	30439
#	41958
#	55175
#	69771
#	81292
#	97053
#	114707
#	130301
#
# Disc length: 1920 seconds
#
# Revision: 1
# Processed by: cddbd v1.5.2PL0 Copyright (c) Steve Scherf et al.
# Submitted via: audiograbber 1.83.01
#
DISCID=7a077e0a
DTITLE=Cass - First Album 2000
DYEAR=2000
DGENRE=Country
TTITLE0=Maybe Tonight
TTITLE1=Mary Go Round
TTITLE2=You Better Get Right
TTITLE3=Why Did It Have to Be me
TTITLE4=She'll Close Her Eyes
TTITLE5=Cool Sunny Days
TTITLE6=Why
TTITLE7=Lonnie and Josie
TTITLE8=It Ain't Easy
TTITLE9=The Whisper
EXTD=
EXTT0=
EXTT1=
EXTT2=
EXTT3=
EXTT4=
EXTT5=
EXTT6=
EXTT7=
EXTT8=
EXTT9=
PLAYORDER=
